Coordinates
version=1
nRows=19
nColumns=24
inDegrees=yes

Units are S.I. units (second, meters, Newtons, ...)
Angles are in degrees.

endheader
time	pelvis_tilt	pelvis_list	pelvis_rotation	pelvis_tx	pelvis_ty	pelvis_tz	hip_flexion_r	hip_adduction_r	hip_rotation_r	knee_angle_r	ankle_angle_r	subtalar_angle_r	mtp_angle_r	hip_flexion_l	hip_adduction_l	hip_rotation_l	knee_angle_l	ankle_angle_l	subtalar_angle_l	mtp_angle_l	lumbar_extension	lumbar_bending	lumbar_rotation
      5.49000000	    -12.97849036	     10.70051984	    -11.39935489	      0.65771630	     -0.01926797	      0.02296411	     19.89065487	    -15.17131082	      0.96547859	    -58.65895845	    -26.47697055	     17.45413034	     42.14328265	     26.91086614	      9.85115592	    -14.78357924	    -13.68325050	     -8.19612643	      2.39430548	      8.91594984	     13.87398357	    -10.77275729	      9.29929169
      5.49500000	    -12.83380905	     10.57827602	    -11.24930960	      0.66313231	     -0.01833515	      0.02236988	     20.32872172	    -15.07809336	      1.09469308	    -59.42179931	    -26.23178222	     17.24815263	     42.51986553	     26.23015467	     10.00856821	    -14.42269585	    -13.38045702	     -7.99597668	      2.39181891	      8.79077355	     13.72201855	    -10.68306333	      8.95879200
      5.50000000	    -12.76704071	     10.44749391	    -11.13642265	      0.66851545	     -0.01748591	      0.02186178	     20.86057055	    -14.91570624	      1.30914951	    -60.15464085	    -25.94778978	     17.18507548	     42.69925356	     25.63596212	     10.10315731	    -14.16269135	    -13.07838271	     -7.81368821	      2.45630107	      8.81017011	     13.66668425	    -10.55372211	      8.67612486
      5.50500000	    -12.59734437	     10.28325365	    -10.93216181	      0.67393601	     -0.01652029	      0.02116905	     21.21654233	    -14.80328333	      1.33992540	    -60.78828972	    -25.77613779	     16.92712152	     43.24828354	     24.90969714	     10.25405702	    -13.65489970	    -12.77078576	     -7.64146658	      2.31676507	      8.59730547	     13.47140885	    -10.43672140	      8.26916844
      5.51000000	    -12.54298759	     10.14293786	    -10.82534409	      0.67927880	     -0.01571060	      0.02069866	     21.74938507	    -14.61175342	      1.55041710	    -61.42724971	    -25.47755360	     16.89883427	     43.43760010	     24.32540659	     10.32174821	    -13.40125824	    -12.46508313	     -7.47115505	      2.37896540	      8.60883182	     13.43468255	    -10.29787645	      8.00422700
      5.51500000	    -12.38736113	      9.93593705	    -10.59851396	      0.68469090	     -0.01476187	      0.01995607	     22.07519959	    -14.44513653	      1.56505319	    -61.93858190	    -25.27538264	     16.74001597	     44.04180265	     23.60058935	     10.42648947	    -12.83536846	    -12.15868809	     -7.29658148	      2.20849710	      8.36666408	     13.24649204	    -10.13175155	      7.57322060
      5.52000000	    -12.34144513	      9.79682317	    -10.48190776	      0.69001309	     -0.01401284	      0.01945209	     22.60094553	    -14.24629339	      1.75932831	    -62.48732194	    -24.91326233	     16.69255122	     44.22142926	     23.02490414	     10.48937793	    -12.59351025	    -11.85019704	     -7.12987057	      2.26729424	      8.37218698	     13.21845882	     -9.98739624	      7.32437059
      5.52500000	    -12.20758929	      9.57529640	    -10.25026808	      0.69539084	     -0.01312460	      0.01874418	     22.93193073	    -14.04576794	      1.76576753	    -62.91645384	    -24.60661114	     16.57488630	     44.65794541	     22.32223273	     10.55158448	    -12.06415734	    -11.54679285	     -6.95512807	      2.16702213	      8.18956145	     13.05781988	     -9.80703094	      6.89367278
      5.53000000	    -12.16703580	      9.43266078	    -10.12560883	      0.70067495	     -0.01242899	      0.01822965	     23.44625319	    -13.83666938	      1.94002059	    -63.37527847	    -24.15898117	     16.51731053	     44.80919435	     21.75209358	     10.60118854	    -11.82581530	    -11.23569539	     -6.80042362	      2.22845228	      8.19421603	     13.03542761	     -9.65863577	      6.64570591
      5.53500000	    -12.04540444	      9.20186287	     -9.87292375	      0.70603375	     -0.01160849	      0.01749745	     23.76681246	    -13.62453656	      1.91628769	    -63.72184029	    -23.73652062	     16.40418980	     45.06779071	     21.06241732	     10.63795063	    -11.33104748	    -10.93355705	     -6.62321857	      2.19925913	      8.08473474	     12.88700048	     -9.46846505	      6.20518250
      5.54000000	    -11.95544931	      9.01248818	     -9.67686909	      0.71132445	     -0.01088475	      0.01685191	     24.16030760	    -13.41378868	      1.97074790	    -64.05485395	    -23.23570096	     16.29083493	     45.24393926	     20.42207261	     10.67388971	    -10.95960785	    -10.62353203	     -6.46002176	      2.21898453	      8.02325187	     12.79131389	     -9.29714809	      5.86370130
      5.54500000	    -11.88025115	      8.81476808	     -9.46376980	      0.71660405	     -0.01020345	      0.01618767	     24.55482672	    -13.19637568	      1.99915020	    -64.34485971	    -22.69142945	     16.16632495	     45.34419836	     19.80046409	     10.69390989	    -10.60327661	    -10.32062538	     -6.29705870	      2.27475577	      8.00470423	     12.70905342	     -9.11808140	      5.50349304
      5.55000000	    -11.85016039	      8.66054015	     -9.30203934	      0.72180543	     -0.00964058	      0.01558146	     25.03588370	    -12.98272701	      2.10775128	    -64.61803176	    -22.08342639	     16.05785890	     45.42048839	     19.24921676	     10.72041494	    -10.35622303	    -10.02097500	     -6.15149800	      2.35903496	      8.03070447	     12.68713950	     -8.95482938	      5.24572030
      5.55500000	    -11.74976475	      8.40773385	     -8.99758386	      0.72707966	     -0.00895926	      0.01482122	     25.33443879	    -12.76104210	      1.98028654	    -64.79834224	    -21.50400816	     15.82946942	     45.38109589	     18.59253199	     10.70373692	     -9.89612797	     -9.73491292	     -5.97717211	      2.44810169	      8.05176819	     12.55610915	     -8.75353556	      4.75799726
      5.56000000	    -11.66494650	      8.19460392	     -8.75581212	      0.73229773	     -0.00835891	      0.01411917	     25.68355259	    -12.54323823	      1.93942692	    -64.95415447	    -20.86366228	     15.62877329	     45.31164333	     17.96852653	     10.69687874	     -9.52404776	     -9.44490811	     -5.82022170	      2.51548769	      8.06664627	     12.45712893	     -8.56547237	      4.38124498
      5.56500000	    -11.60071047	      7.98384856	     -8.50374098	      0.73748741	     -0.00782237	      0.01340620	     26.05004363	    -12.32938687	      1.87963087	    -65.07153617	    -20.20014928	     15.39858717	     45.20840472	     17.37866988	     10.68246816	     -9.16223153	     -9.17219385	     -5.65725453	      2.60107081	      8.09796411	     12.37963977	     -8.37723996	      4.00262019
      5.57000000	    -11.53777114	      7.76376859	     -8.24099503	      0.74265538	     -0.00731440	      0.01267906	     26.40490681	    -12.11190285	      1.79332036	    -65.14343376	    -19.51632605	     15.13981752	     45.05161335	     16.79728610	     10.65465074	     -8.79271511	     -8.91330464	     -5.49095413	      2.67911570	      8.12707099	     12.30168748	     -8.18135864	      3.61242293
      5.57500000	    -11.48128509	      7.54357440	     -7.97424470	      0.74779201	     -0.00684648	      0.01194721	     26.76206578	    -11.89713041	      1.69130673	    -65.17491188	    -18.81762223	     14.85780788	     44.85395401	     16.23337666	     10.61918442	     -8.41942741	     -8.66939410	     -5.32361519	      2.75078248	      8.15078828	     12.22982531	     -7.98347568	      3.22610477
      5.58000000	    -11.43148839	      7.31854450	     -7.70029537	      0.75290887	     -0.00642050	      0.01120679	     27.11772109	    -11.68279782	      1.56568201	    -65.16426173	    -18.11082916	     14.54680471	     44.61526873	     15.68635521	     10.57293733	     -8.03711341	     -8.44269140	     -5.14760931	      2.81184021	      8.16875654	     12.16476535	     -7.78160637	      2.84017331
